<svg width="21" height="7" viewBox="0 0 21 7" fill="none" xmlns="http://www.w3.org/2000/svg">
<path d="M3.14389 1.41667C2.01223 1.41667 1.08633 2.35417 1.08633 3.50001C1.08633 4.64584 2.01223 5.58334 3.14389 5.58334C4.27554 5.58334 5.20144 4.64584 5.20144 3.50001C5.20144 2.35417 4.27554 1.41667 3.14389 1.41667ZM17.5468 1.41667C16.4151 1.41667 15.4892 2.35417 15.4892 3.50001C15.4892 4.64584 16.4151 5.58334 17.5468 5.58334C18.6784 5.58334 19.6043 4.64584 19.6043 3.50001C19.6043 2.35417 18.6784 1.41667 17.5468 1.41667ZM10.3453 1.41667C9.21367 1.41667 8.28777 2.35417 8.28777 3.50001C8.28777 4.64584 9.21367 5.58334 10.3453 5.58334C11.477 5.58334 12.4029 4.64584 12.4029 3.50001C12.4029 2.35417 11.477 1.41667 10.3453 1.41667Z" stroke="white" stroke-width="1.5"/>
</svg>
