<svg width="24" height="24" viewBox="0 0 24 24" fill="none" xmlns="http://www.w3.org/2000/svg">
<path d="M13.73 3.51L15.49 7.03C15.73 7.52 16.37 7.99 16.91 8.08L20.1 8.61C22.14 8.95 22.62 10.43 21.15 11.89L18.67 14.37C18.25 14.79 18.02 15.6 18.15 16.18L18.86 19.25C19.42 21.68 18.13 22.62 15.98 21.35L12.99 19.58C12.45 19.26 11.56 19.26 11.01 19.58L8.01997 21.35C5.87997 22.62 4.57997 21.67 5.13997 19.25L5.84997 16.18C5.97997 15.6 5.74997 14.79 5.32997 14.37L2.84997 11.89C1.38997 10.43 1.85997 8.95 3.89997 8.61L7.08997 8.08C7.61997 7.99 8.25997 7.52 8.49997 7.03L10.26 3.51C11.22 1.6 12.78 1.6 13.73 3.51V3.51Z" stroke="black" stroke-width="1.5" stroke-linecap="round" stroke-linejoin="round"/>
</svg>
